<svg id="_x33_0" enable-background="new 0 0 64 64" height="512" viewBox="0 0 64 64" width="512" xmlns="http://www.w3.org/2000/svg"><g><g><g><path d="m8 44h8v4h-8z" fill="#fcd770"/></g><g><path d="m16 52v4h-6v-2-2z" fill="#fcd770"/></g><g><path d="m10 52v2h-8v-3c0-.55.45-1 1-1h5 1c.55 0 1 .45 1 1z" fill="#fcd770"/></g><g><path d="m10 60v1c0 .55-.45 1-1 1h-6c-.55 0-1-.45-1-1v-3h8z" fill="#fcd770"/></g><g><path d="m16 56v3c0 .55-.45 1-1 1h-5v-2-2z" fill="#ffc729"/></g><g><path d="m16 48v4h-6v-1c0-.55-.45-1-1-1h-1v-2z" fill="#ffc729"/></g><g><path d="m16 44h-8v-3c0-.55.45-1 1-1h4.66.01c.62 1.43 1.41 2.77 2.33 4z" fill="#ffc729"/></g><g><path d="m10 56v2h-8v-4h8z" fill="#ffc729"/></g><g><path d="m56 41v3h-8c.92-1.23 1.71-2.57 2.33-4h.01 4.66c.55 0 1 .45 1 1z" fill="#ffc729"/></g><g><path d="m56 48v2h-1c-.55 0-1 .45-1 1v1h-6v-4z" fill="#ffc729"/></g><g><path d="m54 58v2h-5c-.55 0-1-.45-1-1v-3h6z" fill="#ffc729"/></g><g><path d="m62 54v4h-8v-2-2z" fill="#ffc729"/></g><g><path d="m48 44h8v4h-8z" fill="#fcd770"/></g><g><path d="m54 54v2h-6v-4h6z" fill="#fcd770"/></g><g><path d="m62 58v3c0 .55-.45 1-1 1h-6c-.55 0-1-.45-1-1v-1-2z" fill="#fcd770"/></g><g><path d="m62 51v3h-8v-2-1c0-.55.45-1 1-1h1 5c.55 0 1 .45 1 1z" fill="#fcd770"/></g><g><path d="m52 32c0 2.85-.6 5.55-1.67 8-.62 1.43-1.41 2.77-2.33 4-1.75 2.34-4 4.27-6.59 5.65-1.46.78-3.02 1.38-4.67 1.78-1.52.37-3.11.57-4.74.57s-3.22-.2-4.74-.57c-1.65-.4-3.21-1-4.67-1.78-2.59-1.38-4.84-3.31-6.59-5.65-.92-1.23-1.71-2.57-2.33-4-1.07-2.45-1.67-5.15-1.67-8 0-10.37 7.89-18.9 18-19.9v4.02c-7.89.99-14 7.72-14 15.88 0 8.84 7.16 16 16 16s16-7.16 16-16c0-8.16-6.11-14.89-14-15.88v-4.02c10.11 1 18 9.53 18 19.9z" fill="#ccd1d9"/></g><g><path d="m34 16.12c7.89.99 14 7.72 14 15.88 0 8.84-7.16 16-16 16s-16-7.16-16-16c0-8.16 6.11-14.89 14-15.88v6.08c-4.56.93-8 4.97-8 9.8 0 5.52 4.48 10 10 10s10-4.48 10-10c0-4.83-3.44-8.87-8-9.8z" fill="#e6e9ed"/></g><g><path d="m43.95 59.79c.03.14.05.28.05.43 0 .98-.8 1.78-1.78 1.78h-1.78c-.84 0-1.57-.59-1.74-1.41l-.98-4.59-.98-4.56v-.01c1.65-.4 3.21-1 4.67-1.78z" fill="#cf9e76"/></g><g><path d="m34 22.2c4.56.93 8 4.97 8 9.8 0 5.52-4.48 10-10 10s-10-4.48-10-10c0-4.83 3.44-8.87 8-9.8.64-.13 1.31-.2 2-.2s1.36.07 2 .2z" fill="#fcd770"/></g><g><path d="m32 2 5 6h-3v4.1 4.02 6.08c-.64-.13-1.31-.2-2-.2s-1.36.07-2 .2v-6.08-4.02-4.1h-3z" fill="#b4dd7f"/></g><g><path d="m27.26 51.43v.01l-.98 4.56-.98 4.59c-.17.82-.9 1.41-1.74 1.41h-1.78c-.98 0-1.78-.8-1.78-1.78 0-.15.02-.29.05-.43l2.54-10.14c1.46.78 3.02 1.38 4.67 1.78z" fill="#cf9e76"/></g></g><g><path d="m31 25v2h-2v3c0 1.654 1.346 3 3 3 .552 0 1 .448 1 1v1h-1c-.552 0-1-.448-1-1v-1h-2v1c0 1.302.839 2.402 2 2.816v2.184h2v-2h2v-3c0-1.654-1.346-3-3-3-.552 0-1-.448-1-1v-1h1c.552 0 1 .448 1 1v1h2v-1c0-1.302-.839-2.402-2-2.816v-2.184z"/><path d="m61 49h-4v-8c0-1.103-.897-2-2-2h-3.225c.779-2.193 1.225-4.543 1.225-7 0-10.536-7.68-19.293-18-20.764v-2.236h4.135l-7.135-8.562-7.135 8.562h4.135v2.236c-10.32 1.471-18 10.228-18 20.764 0 2.457.446 4.807 1.225 7h-3.225c-1.103 0-2 .897-2 2v8h-4c-1.103 0-2 .897-2 2v10c0 1.103.897 2 2 2h6c1.103 0 2-.897 2-2h4c1.103 0 2-.897 2-2v-12.331c1.313 1.342 2.809 2.499 4.439 3.453l-2.357 9.424c-.055.22-.082.446-.082.673 0 1.533 1.248 2.781 2.781 2.781h1.779c1.303 0 2.446-.924 2.719-2.197l.815-3.803h9.812l.815 3.803c.272 1.273 1.416 2.197 2.718 2.197h1.779c1.534 0 2.782-1.248 2.782-2.781 0-.227-.027-.453-.083-.674l-2.356-9.424c1.63-.954 3.126-2.111 4.439-3.453v12.332c0 1.103.897 2 2 2h4c0 1.103.897 2 2 2h6c1.103 0 2-.897 2-2v-10c0-1.103-.897-2-2-2zm0 4h-6v-2h6zm-6-6h-6v-2h6zm-6 2h6c-1.103 0-2 .897-2 2h-4zm0 4h4v2h-4zm6 2h6v2h-6zm0-14v2h-5.146c.399-.645.762-1.312 1.09-2zm-14-9c0 4.963-4.037 9-9 9s-9-4.037-9-9 4.037-9 9-9 9 4.037 9 9zm-12-10.574c-4.61 1.31-8 5.549-8 10.574 0 6.065 4.935 11 11 11s11-4.935 11-11c0-5.024-3.39-9.263-8-10.574v-4.116c6.914 1.403 12 7.523 12 14.69 0 8.271-6.729 15-15 15s-15-6.729-15-15c0-7.167 5.086-13.286 12-14.69zm3-17.863 2.865 3.437h-1.865v14.051c-.33-.03-.662-.051-1-.051s-.67.021-1 .051v-14.051h-1.865zm-18.945 37.437c.328.688.692 1.355 1.09 2h-5.145v-2zm-4.055 16h-6.001v-2h6.001zm2-4h4v2h-4zm0-2c0-1.103-.897-2-2-2h6v2zm-2-4v-2h6v2zm-6 4h6v2h-6.002v-2zm0 10v-2h6v2zm8-2v-2h4v2zm13.324 1.383c-.077.357-.397.617-.763.617h-1.779c-.431 0-.782-.351-.782-.781 0-.064.008-.129.022-.189l2.24-8.958c.911.419 1.853.781 2.828 1.068zm3.199-5.383.512-2.388c1.285.247 2.608.388 3.965.388s2.68-.141 3.966-.388l.511 2.388zm15.454 5.028c.015.062.023.126.023.191 0 .43-.351.781-.781.781h-1.779c-.366 0-.687-.26-.764-.617l-1.766-8.244c.976-.287 1.917-.648 2.828-1.068zm-10.977-9.028c-10.477 0-19-8.523-19-19 0-9.435 6.807-17.295 16-18.745v2.028c-8.038 1.433-14 8.458-14 16.717 0 9.374 7.626 17 17 17s17-7.626 17-17c0-8.259-5.962-15.284-14-16.717v-2.028c9.193 1.45 16 9.31 16 18.745 0 10.477-8.523 19-19 19zm17 8v-2h4v2zm6 2v-2h6v2z"/></g></g></svg>