<svg id="Layer_1" height="512" viewBox="0 0 512 512" width="512" xmlns="http://www.w3.org/2000/svg" data-name="Layer 1"><path d="m313.109 78.5a81.572 81.572 0 0 0 -65.04 3.98l-144.4 71.1-34.18-23.63a40.787 40.787 0 0 0 -38.219-4.37l-15.27 6.044 59.649 48.421a41.248 41.248 0 0 0 27.13 9.369 20.993 20.993 0 0 0 7.27-1.319l203.461-80.55a15.54 15.54 0 0 0 -.4-29.05z" fill="#50a6ea"/><path d="m313.109 78.5a81.575 81.575 0 0 0 -65.04 3.98l-144.4 71.1-34.179-23.635a40.789 40.789 0 0 0 -38.22-4.37l-15.27 6.049 14.9 12.1.369-.146a40.789 40.789 0 0 1 38.22 4.37l34.179 23.63 144.4-71.1a81.575 81.575 0 0 1 65.04-3.98 15.279 15.279 0 0 1 7.405 5.6 15.611 15.611 0 0 0 2.817-8.998 15.291 15.291 0 0 0 -10.221-14.6z" fill="#72bcef"/><path d="m495.85 252.205a72 72 0 0 1 -4.34 29.49 77.577 77.577 0 0 1 -16.62 26.36l-51.61 54.98-51.61-54.98a77.577 77.577 0 0 1 -16.62-26.36 72 72 0 0 1 -4.34-29.49c2.47-36.97 32-69.71 72.57-69.71s70.1 32.74 72.57 69.71z" fill="#49c160"/><path d="m391.669 308.055a77.617 77.617 0 0 1 -16.62-26.36 72.039 72.039 0 0 1 -4.34-29.491c2.262-33.855 27.225-64.145 62.571-69.011a73.307 73.307 0 0 0 -10-.7c-40.571 0-70.1 32.74-72.571 69.71a72.039 72.039 0 0 0 4.34 29.491 77.617 77.617 0 0 0 16.62 26.36l51.611 54.98 10-10.653z" fill="#8be89b"/><path d="m138.5 279.255a21.66 21.66 0 1 1 -21.66-21.65 21.663 21.663 0 0 1 21.66 21.65z" fill="#fadf4a"/><path d="m420.04 395.125a21.66 21.66 0 1 1 -21.65 21.66 21.657 21.657 0 0 1 21.65-21.66z" fill="#c24e38"/><path d="m423.28 219.325c17.21 0 31.17 14.33 31.17 32.01s-13.96 32-31.17 32-31.17-14.33-31.17-32 13.96-32.01 31.17-32.01z" fill="#33a045"/><path d="m207.39 102.495v.01l-39.75 19.57-53.62-34.56 19.79-12.05z" fill="#4499d3"/><path d="m239.19 126.245-8.05 13.91-56.53 97.62h-31.94l27.45-72.62 5.18-13.69z" fill="#4499d3"/><g fill="#284268"><path d="m501.834 251.8a82.189 82.189 0 0 0 -23.734-52.549 77.413 77.413 0 0 0 -109.645 0 82.179 82.179 0 0 0 -23.728 52.549 77.6 77.6 0 0 0 4.682 31.952 83.331 83.331 0 0 0 17.885 28.408l51.612 54.975a6 6 0 0 0 8.748 0l51.613-54.975a83.355 83.355 0 0 0 17.884-28.408 77.633 77.633 0 0 0 4.683-31.952zm-15.956 27.839a71.462 71.462 0 0 1 -15.359 24.309l-47.239 50.319-47.238-50.315a71.439 71.439 0 0 1 -15.359-24.309 65.69 65.69 0 0 1 -3.984-27.038 70.187 70.187 0 0 1 20.259-44.884 65.413 65.413 0 0 1 92.644 0 70.187 70.187 0 0 1 20.259 44.879 65.708 65.708 0 0 1 -3.983 27.043z"/><path d="m423.28 213.33c-20.493 0-37.166 17.047-37.166 38s16.673 38 37.166 38 37.165-17.047 37.165-38-16.672-38-37.165-38zm0 64c-13.877 0-25.166-11.664-25.166-26s11.289-26 25.166-26 25.165 11.665 25.165 26-11.289 26.004-25.165 26.004z"/><path d="m420.044 389.128a27.667 27.667 0 0 0 -23.763 13.527l-252.1-119.249a27.7 27.7 0 1 0 -4.359 11.213l252.69 119.53c-.083.868-.129 1.747-.129 2.637a27.658 27.658 0 1 0 27.657-27.658zm-303.206-94.211a15.657 15.657 0 1 1 15.662-15.657 15.674 15.674 0 0 1 -15.662 15.657zm303.206 137.527a15.658 15.658 0 1 1 15.656-15.658 15.675 15.675 0 0 1 -15.656 15.658z"/><path d="m102.963 195.411a26.8 26.8 0 0 0 9.246-1.717l47.652-18.351-22.8 60.308a6 6 0 0 0 5.612 8.122h31.944a6 6 0 0 0 5.193-2.993l55.48-95.813 80.432-31.845a21.541 21.541 0 0 0 -.551-40.265 87.83 87.83 0 0 0 -69.747 4.235l-38.374 18.891-71.167-26.146a6 6 0 0 0 -5.188.506l-19.795 12.043a6 6 0 0 0 -.132 10.169l44.713 28.821-51.3 25.257-31.281-21.621a46.715 46.715 0 0 0 -43.836-5.012l-15.273 6.046a6 6 0 0 0 -1.572 10.238l59.65 48.426a47.287 47.287 0 0 0 29.736 10.724q.68-.003 1.358-.023zm68.19 36.362h-19.8l28.625-75.7 45.385-17.918zm-45.835-144.113 9.142-5.56 57.721 21.206-24.146 11.888zm-45.886 87.731-51.69-41.964 5.739-2.272a34.734 34.734 0 0 1 32.593 3.728l34.181 23.625a5.994 5.994 0 0 0 6.061.447l144.484-71.136a75.841 75.841 0 0 1 60.258-3.689 9.541 9.541 0 0 1 .244 17.834l-66.471 26.317a5.994 5.994 0 0 0 -7.839-7.617l-63.892 25.223a6 6 0 0 0 -3.41 3.459l-4.138 10.945-57.708 22.224a15.138 15.138 0 0 1 -5.242.9 35.12 35.12 0 0 1 -23.17-8.024z"/></g></svg>